<?xml version="1.0" encoding="utf-8"?>
<!-- Generator: Adobe Illustrator 25.3.1, SVG Export Plug-In . SVG Version: 6.00 Build 0)  -->
<svg version="1.1" id="Layer_1" xmlns="http://www.w3.org/2000/svg" xmlns:xlink="http://www.w3.org/1999/xlink" x="0px" y="0px"
	 viewBox="0 0 216 70" style="enable-background:new 0 0 216 70;" xml:space="preserve">
<style type="text/css">
	.st0{fill:url(#SVGID_1_);}
	.st1{fill:#47505F;}
	.st2{fill:#3A4851;}
</style>
<linearGradient id="SVGID_1_" gradientUnits="userSpaceOnUse" x1="48.0178" y1="59.4585" x2="12.5368" y2="20.287">
	<stop  offset="0.1493" style="stop-color:#25C3EA"/>
	<stop  offset="0.4698" style="stop-color:#6ABD45"/>
	<stop  offset="0.8281" style="stop-color:#D5DF32"/>
</linearGradient>
<path class="st0" d="M43.5,48.6h-2.3l0,2.3h2.3L43.5,48.6z M16.5,29.8h-2.3v2.3h2.3V29.8z M32.7,16.4H30v2.7l2.7,0V16.4z M47.6,26.6
	l-2.2,0l0,2.2h2.2V26.6z M52.5,32.1l-2.8,0v2.8l2.8,0V32.1z M24.7,21.1h-5.6v5.6l5.6,0V21.1z M38.9,16.3h-4.2v4.2h4.2V16.3z
	 M27.7,14.3h-4.3v4.3h4.3V14.3z M22,30.8v-2.1h-2.1v2.1H22z M16.7,39.6h-2.1v2.1h2.1V39.6z M50.4,54.3v2.1h2.1v-2.1H50.4z M17,12.5
	h-2.3v2.3H17V12.5z M20.9,15.7h-3.1v3.1l3.1,0V15.7z M23.2,11.3h-1.2v1.3h1.2V11.3z M35.2,37.3v-5l3.1-3.1h5.4v-6.1l-6.1,0v5.4
	l-3.1,3.1h-5v5l-2.9,2.9h-2.9l0,3.6h3.6v-2.9l2.9-2.9H35.2z M44.4,32.3l-5.7,0v5l-2.6,2.6h-3.9v4.6h4.6v-3.9l2.6-2.6h5V32.3z
	 M32.2,52l-2.5,2.5h-2.3l0,3h3v-2.3l2.5-2.5h4.7v-5.4h-5.4L32.2,52z M23.4,49.6l-2.5,2.5h-4.7v5.4l5.4,0l0-4.7l2.5-2.5h2.3l0-3h-3
	V49.6z M8.8,36.9L7,38.7H5.4v2.1l2.1,0v-1.6l1.8-1.8h3.4v-3.8H8.8L8.8,36.9z M52.2,51.9v-4.8h-4.8l0,4.2l-2.2,2.2h-2v2.6h2.6v-2
	l2.2-2.2L52.2,51.9z M45.6,41.6l2.2-2.2h2v-2.6h-2.6v2L45,41l-4.2,0v4.8l4.8,0V41.6z M16.7,22.9V21l-1.9,0v1.4L13.2,24l-3,0l0,3.4
	h3.4l0-2.9l1.6-1.6H16.7z M18.7,37.7l4.6,0v-3.9l4.9-4.9h6.4v-7.1h-7.1l0,6.4l-4.9,4.9h-3.9V37.7z"/>
<path class="st1" d="M70.9,46.5c-3.8-3.6-1-3.6-0.9-5.8c0.1-2.2-1.8-2.6-1.8-2.6c0.8-1.9,0.9-2.3,0.9-2.3c-1.7-1.3-2-2.9-2-2.9
	c1.7-2.6,2.9-5.6,2.9-5.6s-11.3-3.6-15.5-6.3c-1.6-0.7-1.2-3.1-1.2-3.1c-11-14.1-27.6-7-27.6-7v0.4c0,0,1.3,0.1,3.3,0.7l2.8,0v0.9
	c1,0.4,2.1,0.8,3.3,1.4h6.5l0,4.1c0.7,0.6,1.4,1.2,2.1,1.8h3.6l0,4c0.9,1.2,1.7,2.4,2.5,3.8c0.5,0.8,1,1.5,1.4,2.3h3.2v4.5l2.6,0
	v2.8l-1.3,0c0,0,0,3,0,4.5l-3.4,0v3.5h3.5v-3.4h3.5v6.6h-2.6C57.3,58,55,64.6,55,64.6c1.4-3.9,5.1-7.2,10.2-9
	C70,53.9,74.6,50.1,70.9,46.5z M45,16.3h-1.7v-1.7H45V16.3z M52.7,24.1h-2.8v-2.8h2.8V24.1z M58.6,39.1H57v-1.6l1.6,0V39.1z
	 M63.1,52.6h-3v-3h3V52.6z"/>
<g>
	<path class="st2" d="M90.6,6.2h10.3v30.4H90.6V6.2z"/>
	<path class="st2" d="M130.4,24.1l9,2.5c-0.6,2.3-1.6,4.2-2.9,5.8c-1.3,1.5-2.9,2.7-4.8,3.5c-1.9,0.8-4.4,1.2-7.4,1.2
		c-3.6,0-6.6-0.5-8.9-1.4c-2.3-1-4.3-2.6-5.9-5.1c-1.7-2.4-2.5-5.5-2.5-9.3c0-5,1.5-8.9,4.4-11.6c2.9-2.7,7.1-4,12.4-4
		c4.2,0,7.5,0.8,9.9,2.3c2.4,1.5,4.2,3.9,5.3,7.1l-9.1,1.8c-0.3-0.9-0.7-1.6-1-2c-0.6-0.7-1.3-1.3-2.1-1.7c-0.8-0.4-1.8-0.6-2.8-0.6
		c-2.3,0-4.1,0.9-5.4,2.6c-0.9,1.3-1.4,3.3-1.4,6c0,3.4,0.6,5.7,1.7,6.9c1.1,1.2,2.7,1.9,4.7,1.9c2,0,3.5-0.5,4.5-1.5
		C129.3,27.5,130,26,130.4,24.1z"/>
	<path class="st2" d="M144.4,6.2h10.3v22.9h16v7.5h-26.3V6.2z"/>
	<path class="st2" d="M175.6,36.5V6.2h17.1c3.2,0,5.6,0.2,7.3,0.7c1.7,0.5,3,1.4,4.1,2.8c1,1.3,1.5,3,1.5,4.9c0,1.7-0.4,3.1-1.2,4.4
		c-0.8,1.2-1.9,2.2-3.2,3c-0.9,0.5-2.1,0.9-3.6,1.2c1.2,0.4,2.1,0.7,2.7,1.1c0.4,0.2,0.9,0.8,1.6,1.6c0.7,0.8,1.2,1.4,1.4,1.9l5,8.8
		h-11.6l-5.5-9.3c-0.7-1.2-1.3-2-1.9-2.3c-0.7-0.5-1.6-0.7-2.5-0.7h-0.9v12.3H175.6z M185.9,18.5h4.3c0.5,0,1.4-0.1,2.7-0.4
		c0.7-0.1,1.2-0.4,1.7-1c0.4-0.5,0.6-1.1,0.6-1.8c0-1-0.3-1.7-1-2.3c-0.7-0.5-2-0.8-3.8-0.8h-4.5V18.5z"/>
</g>
<g>
	<path class="st2" d="M90.6,45.2h0.6v6h-0.6V45.2z"/>
	<path class="st2" d="M92.4,46.8H93v0.6h0c0.2-0.3,0.6-0.7,1.4-0.7c0.6,0,1.1,0.1,1.5,0.5c0.3,0.3,0.6,0.8,0.6,1.6v2.4h-0.6v-2.4
		c0-0.6-0.2-1-0.4-1.2c-0.3-0.3-0.8-0.4-1-0.4c-0.3,0-0.7,0.1-1,0.4c-0.3,0.2-0.4,0.6-0.4,1.2v2.4h-0.6V46.8z"/>
	<path class="st2" d="M98.2,47.3h-1v-0.5h1v-1.6h0.6v1.6h1.1v0.5h-1.1v3.9h-0.6V47.3z"/>
	<path class="st2" d="M100.9,49.2c0,0.9,0.9,1.6,1.8,1.6c0.9,0,1.5-0.5,1.7-1h0.6c-0.3,0.9-1.2,1.6-2.3,1.6c-1.3,0-2.4-1-2.4-2.3
		c0-1.3,1.1-2.3,2.4-2.3c1,0,1.8,0.6,2.1,1.1c0.3,0.5,0.4,1,0.4,1.4H100.9z M104.6,48.7c-0.2-1-1.1-1.5-1.8-1.5
		c-0.7,0-1.6,0.5-1.8,1.5H104.6z"/>
	<path class="st2" d="M106.1,46.8h0.6v0.6h0c0.3-0.6,0.8-0.7,1.3-0.8v0.6c-0.4,0-0.8,0.2-1,0.4c-0.2,0.2-0.3,0.6-0.3,0.9v2.6h-0.6
		V46.8z"/>
	<path class="st2" d="M108.8,46.8h0.6v0.6h0c0.2-0.3,0.6-0.7,1.4-0.7c0.6,0,1.1,0.1,1.5,0.5c0.4,0.3,0.6,0.8,0.6,1.6v2.4h-0.6v-2.4
		c0-0.6-0.2-1-0.4-1.2c-0.3-0.3-0.8-0.4-1-0.4c-0.3,0-0.7,0.1-1,0.4c-0.3,0.2-0.4,0.6-0.4,1.2v2.4h-0.6V46.8z"/>
	<path class="st2" d="M118.8,51.2h-0.6v-0.8h0c-0.5,0.7-1.3,0.9-1.8,0.9c-1.5,0-2.5-1.1-2.5-2.3c0-1.2,1-2.3,2.5-2.3
		c0.5,0,1.3,0.2,1.8,0.9h0v-0.8h0.6V51.2z M116.4,50.8c1,0,1.9-0.8,1.9-1.8c0-1-0.8-1.8-1.9-1.8c-1,0-1.9,0.7-1.9,1.8
		C114.5,50,115.2,50.8,116.4,50.8z"/>
	<path class="st2" d="M120.4,47.3h-1v-0.5h1v-1.6h0.6v1.6h1.1v0.5H121v3.9h-0.6V47.3z"/>
	<path class="st2" d="M122.8,45.2h0.6v1h-0.6V45.2z M122.8,46.8h0.6v4.4h-0.6V46.8z"/>
	<path class="st2" d="M126.7,46.7c1.4,0,2.5,1.1,2.5,2.3c0,1.2-1.1,2.3-2.5,2.3c-1.4,0-2.4-1.1-2.4-2.3
		C124.3,47.6,125.5,46.7,126.7,46.7z M126.7,50.8c0.9,0,1.8-0.7,1.8-1.8c0-1.2-1-1.8-1.8-1.8c-0.9,0-1.8,0.7-1.8,1.8
		C124.9,50.1,125.8,50.8,126.7,50.8z"/>
	<path class="st2" d="M130.1,46.8h0.6v0.6h0c0.2-0.3,0.6-0.7,1.4-0.7c0.6,0,1.1,0.1,1.5,0.5c0.3,0.3,0.6,0.8,0.6,1.6v2.4h-0.6v-2.4
		c0-0.6-0.2-1-0.4-1.2c-0.3-0.3-0.8-0.4-1-0.4c-0.3,0-0.7,0.1-1,0.4c-0.3,0.2-0.4,0.6-0.4,1.2v2.4h-0.6V46.8z"/>
	<path class="st2" d="M140.1,51.2h-0.6v-0.8h0c-0.5,0.7-1.3,0.9-1.8,0.9c-1.5,0-2.5-1.1-2.5-2.3c0-1.2,1-2.3,2.5-2.3
		c0.5,0,1.3,0.2,1.8,0.9h0v-0.8h0.6V51.2z M137.6,50.8c1,0,1.9-0.8,1.9-1.8c0-1-0.8-1.8-1.9-1.8c-1,0-1.9,0.7-1.9,1.8
		C135.7,50,136.5,50.8,137.6,50.8z"/>
	<path class="st2" d="M141.1,45.2h0.6v6h-0.6V45.2z"/>
	<path class="st2" d="M151.3,49.7c-0.7,1.2-1.9,1.7-2.9,1.7c-1.8,0-3.3-1.3-3.3-3.1c0-1.8,1.5-3.1,3.3-3.1c1.6,0,2.6,1.1,2.9,1.6
		h-0.7c-0.7-1-1.8-1.1-2.2-1.1c-1.5,0-2.7,1.2-2.7,2.6c0,1.4,1.3,2.6,2.7,2.6c0.3,0,1.3,0,2.2-1.1H151.3z"/>
	<path class="st2" d="M154.4,46.7c1.4,0,2.5,1.1,2.5,2.3c0,1.2-1.1,2.3-2.5,2.3c-1.4,0-2.4-1.1-2.4-2.3
		C152,47.6,153.2,46.7,154.4,46.7z M154.4,50.8c0.9,0,1.8-0.7,1.8-1.8c0-1.2-1-1.8-1.8-1.8c-0.9,0-1.8,0.7-1.8,1.8
		C152.6,50.1,153.5,50.8,154.4,50.8z"/>
	<path class="st2" d="M157.8,46.8h0.6v0.6h0c0.2-0.3,0.6-0.7,1.4-0.7c0.6,0,1.1,0.1,1.5,0.5c0.4,0.3,0.6,0.8,0.6,1.6v2.4h-0.6v-2.4
		c0-0.6-0.2-1-0.4-1.2c-0.3-0.3-0.8-0.4-1-0.4c-0.3,0-0.7,0.1-1,0.4c-0.3,0.2-0.4,0.6-0.4,1.2v2.4h-0.6V46.8z"/>
	<path class="st2" d="M163.3,47.3h-0.7v-0.5h0.7c0-0.6,0.1-1.7,1.8-1.7v0.5c-1.2,0-1.2,0.7-1.2,1.1h1.2v0.5h-1.2v3.9h-0.6V47.3z"/>
	<path class="st2" d="M166,49.2c0,0.9,0.9,1.6,1.8,1.6c0.9,0,1.5-0.5,1.7-1h0.6c-0.3,0.9-1.2,1.6-2.3,1.6c-1.3,0-2.4-1-2.4-2.3
		c0-1.3,1.1-2.3,2.4-2.3c1,0,1.8,0.6,2.1,1.1c0.3,0.5,0.4,1,0.4,1.4H166z M169.7,48.7c-0.2-1-1.1-1.5-1.8-1.5
		c-0.7,0-1.6,0.5-1.8,1.5H169.7z"/>
	<path class="st2" d="M171.2,46.8h0.6v0.6h0c0.3-0.6,0.8-0.7,1.3-0.8v0.6c-0.4,0-0.8,0.2-1,0.4c-0.2,0.2-0.3,0.6-0.3,0.9v2.6h-0.6
		V46.8z"/>
	<path class="st2" d="M174.1,49.2c0,0.9,0.9,1.6,1.8,1.6c0.9,0,1.5-0.5,1.7-1h0.6c-0.3,0.9-1.2,1.6-2.3,1.6c-1.3,0-2.4-1-2.4-2.3
		c0-1.3,1.1-2.3,2.4-2.3c1,0,1.8,0.6,2.1,1.1c0.3,0.5,0.4,1,0.4,1.4H174.1z M177.8,48.7c-0.2-1-1.1-1.5-1.8-1.5
		c-0.7,0-1.6,0.5-1.8,1.5H177.8z"/>
	<path class="st2" d="M179.3,46.8h0.6v0.6h0c0.2-0.3,0.6-0.7,1.4-0.7c0.6,0,1.1,0.1,1.5,0.5c0.4,0.3,0.6,0.8,0.6,1.6v2.4h-0.6v-2.4
		c0-0.6-0.2-1-0.4-1.2c-0.3-0.3-0.8-0.4-1-0.4c-0.3,0-0.7,0.1-1,0.4c-0.3,0.2-0.4,0.6-0.4,1.2v2.4h-0.6V46.8z"/>
	<path class="st2" d="M189.2,49.9c-0.3,0.6-0.9,1.4-2.3,1.4c-1.5,0-2.5-1.1-2.5-2.3c0-1.3,1.1-2.3,2.5-2.3c0.8,0,1.9,0.4,2.3,1.5
		h-0.7c-0.4-0.7-1.1-0.9-1.6-0.9c-0.9,0-1.9,0.7-1.9,1.8c0,1,0.8,1.8,1.9,1.8c1,0,1.5-0.6,1.6-0.9H189.2z"/>
	<path class="st2" d="M190.4,49.2c0,0.9,0.9,1.6,1.8,1.6c0.9,0,1.5-0.5,1.7-1h0.6c-0.3,0.9-1.2,1.6-2.3,1.6c-1.3,0-2.4-1-2.4-2.3
		c0-1.3,1.1-2.3,2.4-2.3c1,0,1.8,0.6,2.1,1.1c0.3,0.5,0.4,1,0.4,1.4H190.4z M194.1,48.7c-0.2-1-1.1-1.5-1.8-1.5
		c-0.7,0-1.6,0.5-1.8,1.5H194.1z"/>
	<path class="st2" d="M201.1,45.1c1.8,0,3.3,1.3,3.3,3.1c0,1.8-1.6,3.1-3.3,3.1c-1.8,0-3.3-1.4-3.3-3.1
		C197.8,46.4,199.4,45.1,201.1,45.1z M201.1,50.8c1.5,0,2.7-1.1,2.7-2.6c0-1.4-1.2-2.6-2.7-2.6c-1.4,0-2.7,1.1-2.7,2.6
		C198.4,49.6,199.7,50.8,201.1,50.8z"/>
	<path class="st2" d="M205.4,46.8h0.6v0.6h0c0.2-0.3,0.6-0.7,1.4-0.7c0.6,0,1.1,0.1,1.5,0.5c0.4,0.3,0.6,0.8,0.6,1.6v2.4h-0.6v-2.4
		c0-0.6-0.2-1-0.4-1.2c-0.3-0.3-0.8-0.4-1-0.4c-0.3,0-0.7,0.1-1,0.4c-0.3,0.2-0.4,0.6-0.4,1.2v2.4h-0.6V46.8z"/>
	<path class="st2" d="M90.6,55h0.6v5.5h2.6V61h-3.2V55z"/>
	<path class="st2" d="M94.8,59c0,0.9,0.9,1.6,1.8,1.6c0.9,0,1.5-0.5,1.7-1h0.6c-0.3,0.9-1.2,1.6-2.3,1.6c-1.3,0-2.4-1-2.4-2.3
		c0-1.3,1.1-2.3,2.4-2.3c1,0,1.8,0.6,2.1,1.1c0.3,0.5,0.4,1,0.4,1.4H94.8z M98.5,58.5c-0.2-1-1.1-1.5-1.8-1.5
		c-0.7,0-1.6,0.5-1.8,1.5H98.5z"/>
	<path class="st2" d="M104.7,61h-0.6v-0.8h0c-0.5,0.7-1.3,0.9-1.8,0.9c-1.5,0-2.5-1.1-2.5-2.3c0-1.2,1-2.3,2.5-2.3
		c0.5,0,1.3,0.2,1.8,0.9h0v-0.8h0.6V61z M102.3,60.6c1,0,1.9-0.8,1.9-1.8c0-1-0.8-1.8-1.9-1.8c-1,0-1.9,0.7-1.9,1.8
		C100.4,59.8,101.2,60.6,102.3,60.6z"/>
	<path class="st2" d="M105.8,56.6h0.6v0.6h0c0.3-0.6,0.8-0.7,1.3-0.8V57c-0.4,0-0.8,0.2-1,0.4c-0.2,0.2-0.3,0.6-0.3,0.9V61h-0.6
		V56.6z"/>
	<path class="st2" d="M108.6,56.6h0.6v0.6h0c0.2-0.3,0.6-0.7,1.4-0.7c0.6,0,1.1,0.1,1.5,0.5c0.4,0.3,0.6,0.8,0.6,1.6V61h-0.6v-2.4
		c0-0.6-0.2-1-0.4-1.2c-0.3-0.3-0.8-0.4-1-0.4c-0.3,0-0.7,0.1-1,0.4c-0.3,0.2-0.4,0.6-0.4,1.2V61h-0.6V56.6z"/>
	<path class="st2" d="M113.8,55h0.6v1h-0.6V55z M113.8,56.6h0.6V61h-0.6V56.6z"/>
	<path class="st2" d="M115.5,56.6h0.6v0.6h0c0.2-0.3,0.6-0.7,1.4-0.7c0.6,0,1.1,0.1,1.5,0.5c0.4,0.3,0.6,0.8,0.6,1.6V61H119v-2.4
		c0-0.6-0.2-1-0.4-1.2c-0.3-0.3-0.8-0.4-1-0.4c-0.3,0-0.7,0.1-1,0.4c-0.3,0.2-0.4,0.6-0.4,1.2V61h-0.6V56.6z"/>
	<path class="st2" d="M125.3,60.3c0,0.5,0,1.1-0.4,1.6c-0.6,0.8-1.7,0.8-1.9,0.8c-0.7,0-2-0.2-2.4-1.6h0.6c0.2,0.4,0.6,1.1,1.8,1.1
		c0.8,0,1.7-0.4,1.7-1.7v-0.4h0c-0.4,0.6-1.1,0.9-1.8,0.9c-1.2,0-2.4-0.9-2.4-2.3c0-1.4,1.2-2.4,2.4-2.4c0.4,0,1.3,0.1,1.8,0.9h0
		v-0.8h0.6V60.3z M122.9,60.6c1.2,0,1.9-1.1,1.9-1.8c0-1-0.8-1.8-1.9-1.8c-1.1,0-1.8,0.9-1.8,1.8C121.1,59.8,121.9,60.6,122.9,60.6z
		"/>
	<path class="st2" d="M128.9,55h1.6c0.8,0,1.3,0.1,1.6,0.2c0.7,0.3,1.1,1,1.1,1.7c0,0.9-0.7,1.8-1.9,1.8l1.8,2.2h-0.8l-2.1-2.7
		c0.8,0,1.1,0,1.4-0.1c0.7-0.2,1-0.7,1-1.3c0-0.5-0.3-1-0.7-1.2c-0.4-0.2-0.7-0.2-1.2-0.2h-1.1V61h-0.6V55z"/>
	<path class="st2" d="M134.4,59c0,0.9,0.9,1.6,1.8,1.6c0.9,0,1.5-0.5,1.7-1h0.6c-0.3,0.9-1.2,1.6-2.3,1.6c-1.3,0-2.4-1-2.4-2.3
		c0-1.3,1.1-2.3,2.4-2.3c1,0,1.8,0.6,2.1,1.1c0.3,0.5,0.4,1,0.4,1.4H134.4z M138.1,58.5c-0.2-1-1.1-1.5-1.8-1.5
		c-0.7,0-1.6,0.5-1.8,1.5H138.1z"/>
	<path class="st2" d="M139.6,56.6h0.6v0.8h0c0.5-0.7,1.3-0.9,1.8-0.9c1.5,0,2.5,1.1,2.5,2.3c0,1.3-1,2.3-2.5,2.3
		c-0.5,0-1.3-0.2-1.8-0.9h0v2.3h-0.6V56.6z M142,57c-1.1,0-1.9,0.9-1.9,1.8c0,1,0.9,1.8,1.9,1.8c1.1,0,1.9-0.8,1.9-1.8
		C143.9,57.7,143,57,142,57z"/>
	<path class="st2" d="M145.4,56.6h0.6v0.6h0c0.3-0.6,0.8-0.7,1.3-0.8V57c-0.4,0-0.8,0.2-1,0.4c-0.2,0.2-0.3,0.6-0.3,0.9V61h-0.6
		V56.6z"/>
	<path class="st2" d="M148.3,59c0,0.9,0.9,1.6,1.8,1.6c0.9,0,1.5-0.5,1.7-1h0.6c-0.3,0.9-1.2,1.6-2.3,1.6c-1.3,0-2.4-1-2.4-2.3
		c0-1.3,1.1-2.3,2.4-2.3c1,0,1.8,0.6,2.1,1.1c0.3,0.5,0.4,1,0.4,1.4H148.3z M152,58.5c-0.2-1-1.1-1.5-1.8-1.5
		c-0.7,0-1.6,0.5-1.8,1.5H152z"/>
	<path class="st2" d="M153.8,59.7c0,0.8,0.6,0.9,0.8,0.9c0.6,0,0.9-0.3,0.9-0.8c0-0.6-0.6-0.7-0.9-0.9c-0.5-0.2-1.2-0.4-1.2-1.2
		c0-0.6,0.5-1.2,1.3-1.2c0.7,0,1.3,0.5,1.3,1.2h-0.6c0-0.5-0.4-0.7-0.7-0.7c-0.5,0-0.7,0.4-0.7,0.7c0,0.5,0.5,0.6,0.8,0.7
		c0.5,0.2,1.3,0.5,1.3,1.4c0,0.8-0.5,1.4-1.5,1.4c-0.6,0-1.5-0.4-1.4-1.4H153.8z"/>
	<path class="st2" d="M157.2,59c0,0.9,0.9,1.6,1.8,1.6c0.9,0,1.5-0.5,1.7-1h0.6c-0.3,0.9-1.2,1.6-2.3,1.6c-1.3,0-2.4-1-2.4-2.3
		c0-1.3,1.1-2.3,2.4-2.3c1,0,1.8,0.6,2.1,1.1c0.3,0.5,0.4,1,0.4,1.4H157.2z M160.9,58.5c-0.2-1-1.1-1.5-1.8-1.5
		c-0.7,0-1.6,0.5-1.8,1.5H160.9z"/>
	<path class="st2" d="M162.4,56.6h0.6v0.6h0c0.2-0.3,0.6-0.7,1.4-0.7c0.6,0,1.1,0.1,1.5,0.5c0.3,0.3,0.6,0.8,0.6,1.6V61h-0.6v-2.4
		c0-0.6-0.2-1-0.4-1.2c-0.3-0.3-0.8-0.4-1-0.4c-0.3,0-0.7,0.1-1,0.4c-0.3,0.2-0.4,0.6-0.4,1.2V61h-0.6V56.6z"/>
	<path class="st2" d="M168.1,57.1h-1v-0.5h1V55h0.6v1.6h1.1v0.5h-1.1V61h-0.6V57.1z"/>
	<path class="st2" d="M175.2,61h-0.6v-0.8h0c-0.5,0.7-1.3,0.9-1.8,0.9c-1.5,0-2.5-1.1-2.5-2.3c0-1.2,1-2.3,2.5-2.3
		c0.5,0,1.3,0.2,1.8,0.9h0v-0.8h0.6V61z M172.8,60.6c1,0,1.9-0.8,1.9-1.8c0-1-0.8-1.8-1.9-1.8c-1,0-1.9,0.7-1.9,1.8
		C170.9,59.8,171.7,60.6,172.8,60.6z"/>
	<path class="st2" d="M176.9,57.1h-1v-0.5h1V55h0.6v1.6h1.1v0.5h-1.1V61h-0.6V57.1z"/>
	<path class="st2" d="M179.2,55h0.6v1h-0.6V55z M179.2,56.6h0.6V61h-0.6V56.6z"/>
	<path class="st2" d="M183.2,56.4c1.4,0,2.5,1.1,2.5,2.3c0,1.2-1.1,2.3-2.5,2.3c-1.4,0-2.4-1.1-2.4-2.3
		C180.7,57.4,181.9,56.4,183.2,56.4z M183.2,60.6c0.9,0,1.8-0.7,1.8-1.8c0-1.2-1-1.8-1.8-1.8c-0.9,0-1.8,0.7-1.8,1.8
		C181.3,59.8,182.2,60.6,183.2,60.6z"/>
	<path class="st2" d="M186.5,56.6h0.6v0.6h0c0.2-0.3,0.6-0.7,1.4-0.7c0.6,0,1.1,0.1,1.5,0.5c0.4,0.3,0.6,0.8,0.6,1.6V61H190v-2.4
		c0-0.6-0.2-1-0.4-1.2c-0.3-0.3-0.8-0.4-1-0.4c-0.3,0-0.7,0.1-1,0.4c-0.3,0.2-0.4,0.6-0.4,1.2V61h-0.6V56.6z"/>
	<path class="st2" d="M192,59.7c0,0.8,0.6,0.9,0.8,0.9c0.6,0,0.9-0.3,0.9-0.8c0-0.6-0.6-0.7-0.9-0.9c-0.5-0.2-1.2-0.4-1.2-1.2
		c0-0.6,0.5-1.2,1.3-1.2c0.7,0,1.3,0.5,1.3,1.2h-0.6c0-0.5-0.4-0.7-0.7-0.7c-0.5,0-0.7,0.4-0.7,0.7c0,0.5,0.5,0.6,0.8,0.7
		c0.5,0.2,1.3,0.5,1.3,1.4c0,0.8-0.5,1.4-1.5,1.4c-0.6,0-1.5-0.4-1.4-1.4H192z"/>
</g>
<g>
	<g>
		<line class="st2" x1="90.4" y1="40.7" x2="208.8" y2="40.7"/>
		<path class="st2" d="M208.8,41.2H90.4c-0.3,0-0.5-0.2-0.5-0.5c0-0.3,0.2-0.5,0.5-0.5h118.4c0.3,0,0.5,0.2,0.5,0.5
			C209.3,40.9,209.1,41.2,208.8,41.2z"/>
	</g>
</g>
</svg>
